<?xml version="1.0"?>
<svg xmlns="http://www.w3.org/2000/svg" xmlns:xlink="http://www.w3.org/1999/xlink" xmlns:svgjs="http://svgjs.com/svgjs" version="1.1" width="512" height="512" x="0" y="0" viewBox="0 0 74 74" style="enable-background:new 0 0 512 512" xml:space="preserve" class=""><g><path xmlns="http://www.w3.org/2000/svg" d="m63.29 59.57a1 1 0 0 1 -.77-1.637c.55-.667 1.11-1.408 1.71-2.266a1 1 0 0 1 1.639 1.146c-.631.9-1.223 1.686-1.808 2.394a1 1 0 0 1 -.771.363z" fill="#ffffff" data-original="#000000" style="" class=""/><path xmlns="http://www.w3.org/2000/svg" d="m37 72.01a35 35 0 1 1 35-35c0 1.052-.044 2.038-.134 3.012a1.008 1.008 0 0 1 -1.042.912 1 1 0 0 1 -.954-.994c0-.031 0-.071 0-.1.089-.915.13-1.84.13-2.83a33 33 0 1 0 -33 33 32.65 32.65 0 0 0 20.518-7.153 1 1 0 0 1 1.244 1.566 34.637 34.637 0 0 1 -21.762 7.587z" fill="#ffffff" data-original="#000000" style="" class=""/><path xmlns="http://www.w3.org/2000/svg" d="m68.39 51.085a1 1 0 0 1 -1-.995v-.01a1 1 0 0 1 .078-.386c.4-.96.731-1.859 1.007-2.75a1 1 0 0 1 1.91.592c-.292.943-.639 1.893-1.06 2.9a1 1 0 0 1 -.935.649z" fill="#ffffff" data-original="#000000" style="" class=""/><path xmlns="http://www.w3.org/2000/svg" d="m37 65.008a28 28 0 1 1 28-28 28.032 28.032 0 0 1 -28 28zm0-54a26 26 0 1 0 26 26 26.029 26.029 0 0 0 -26-26z" fill="#ffffff" data-original="#000000" style="" class=""/><path xmlns="http://www.w3.org/2000/svg" d="m37 19.008a1 1 0 0 1 -1-1v-2a1 1 0 1 1 2 0v2a1 1 0 0 1 -1 1z" fill="#ffffff" data-original="#000000" style="" class=""/><path xmlns="http://www.w3.org/2000/svg" d="m23.565 24.573a1 1 0 0 1 -.707-.293l-1.414-1.414a1 1 0 1 1 1.414-1.414l1.414 1.414a1 1 0 0 1 -.707 1.707z" fill="#ffffff" data-original="#000000" style="" class=""/><path xmlns="http://www.w3.org/2000/svg" d="m18 38.008h-2a1 1 0 0 1 0-2h2a1 1 0 0 1 0 2z" fill="#ffffff" data-original="#000000" style="" class=""/><path xmlns="http://www.w3.org/2000/svg" d="m22.151 52.857a1 1 0 0 1 -.707-1.707l1.414-1.414a1 1 0 0 1 1.414 1.414l-1.414 1.414a1 1 0 0 1 -.707.293z" fill="#ffffff" data-original="#000000" style="" class=""/><path xmlns="http://www.w3.org/2000/svg" d="m37 59.008a1 1 0 0 1 -1-1v-2a1 1 0 0 1 2 0v2a1 1 0 0 1 -1 1z" fill="#ffffff" data-original="#000000" style="" class=""/><path xmlns="http://www.w3.org/2000/svg" d="m51.849 52.857a1 1 0 0 1 -.707-.293l-1.414-1.414a1 1 0 0 1 1.414-1.414l1.414 1.414a1 1 0 0 1 -.707 1.707z" fill="#ffffff" data-original="#000000" style="" class=""/><path xmlns="http://www.w3.org/2000/svg" d="m58 38.008h-2a1 1 0 0 1 0-2h2a1 1 0 0 1 0 2z" fill="#ffffff" data-original="#000000" style="" class=""/><path xmlns="http://www.w3.org/2000/svg" d="m50.435 24.573a1 1 0 0 1 -.707-1.707l1.414-1.414a1 1 0 1 1 1.414 1.414l-1.414 1.414a1 1 0 0 1 -.707.293z" fill="#ffffff" data-original="#000000" style="" class=""/><path xmlns="http://www.w3.org/2000/svg" d="m31.25 43.75a1 1 0 0 1 -.707-1.707l5.457-5.457v-12.336a1 1 0 0 1 2 0v12.75a1 1 0 0 1 -.293.707l-5.75 5.75a1 1 0 0 1 -.707.293z" fill="#ffffff" data-original="#000000" style="" class=""/></g></svg>
