<?xml version="1.0"?>
<svg xmlns="http://www.w3.org/2000/svg" xmlns:xlink="http://www.w3.org/1999/xlink" xmlns:svgjs="http://svgjs.com/svgjs" version="1.1" width="512" height="512" x="0" y="0" viewBox="0 0 480 480" style="enable-background:new 0 0 512 512" xml:space="preserve" class=""><g>
<g xmlns="http://www.w3.org/2000/svg">
	<g>
		<g>
			<path d="M472,440h-48V144c0-4.418-3.582-8-8-8H280V32c0-4.418-3.582-8-8-8H64c-4.418,0-8,3.582-8,8v408H8c-4.418,0-8,3.582-8,8     s3.582,8,8,8h464c4.418,0,8-3.582,8-8S476.418,440,472,440z M264,440H72V40h192V440z M408,440H280V152h128V440z" fill="#000000ae" data-original="#000000" style="" class=""/>
			<path d="M320,232h48c4.418,0,8-3.582,8-8v-48c0-4.418-3.582-8-8-8h-48c-4.418,0-8,3.582-8,8v48C312,228.418,315.582,232,320,232z      M328,184h32v32h-32V184z" fill="#000000ae" data-original="#000000" style="" class=""/>
			<path d="M320,312h48c4.418,0,8-3.582,8-8v-48c0-4.418-3.582-8-8-8h-48c-4.418,0-8,3.582-8,8v48C312,308.418,315.582,312,320,312z      M328,264h32v32h-32V264z" fill="#000000ae" data-original="#000000" style="" class=""/>
			<path d="M320,392h48c4.418,0,8-3.582,8-8v-48c0-4.418-3.582-8-8-8h-48c-4.418,0-8,3.582-8,8v48C312,388.418,315.582,392,320,392z      M328,344h32v32h-32V344z" fill="#000000ae" data-original="#000000" style="" class=""/>
			<path d="M184,232h48c4.418,0,8-3.582,8-8v-48c0-4.418-3.582-8-8-8h-48c-4.418,0-8,3.582-8,8v48C176,228.418,179.582,232,184,232z      M192,184h32v32h-32V184z" fill="#000000ae" data-original="#000000" style="" class=""/>
			<path d="M184,152h48c4.418,0,8-3.582,8-8V96c0-4.418-3.582-8-8-8h-48c-4.418,0-8,3.582-8,8v48C176,148.418,179.582,152,184,152z      M192,104h32v32h-32V104z" fill="#000000ae" data-original="#000000" style="" class=""/>
			<path d="M184,312h48c4.418,0,8-3.582,8-8v-48c0-4.418-3.582-8-8-8h-48c-4.418,0-8,3.582-8,8v48C176,308.418,179.582,312,184,312z      M192,264h32v32h-32V264z" fill="#000000ae" data-original="#000000" style="" class=""/>
			<path d="M184,392h48c4.418,0,8-3.582,8-8v-48c0-4.418-3.582-8-8-8h-48c-4.418,0-8,3.582-8,8v48C176,388.418,179.582,392,184,392z      M192,344h32v32h-32V344z" fill="#000000ae" data-original="#000000" style="" class=""/>
			<path d="M104,232h48c4.418,0,8-3.582,8-8v-48c0-4.418-3.582-8-8-8h-48c-4.418,0-8,3.582-8,8v48C96,228.418,99.582,232,104,232z      M112,184h32v32h-32V184z" fill="#000000ae" data-original="#000000" style="" class=""/>
			<path d="M104,152h48c4.418,0,8-3.582,8-8V96c0-4.418-3.582-8-8-8h-48c-4.418,0-8,3.582-8,8v48C96,148.418,99.582,152,104,152z      M112,104h32v32h-32V104z" fill="#000000ae" data-original="#000000" style="" class=""/>
			<path d="M104,312h48c4.418,0,8-3.582,8-8v-48c0-4.418-3.582-8-8-8h-48c-4.418,0-8,3.582-8,8v48C96,308.418,99.582,312,104,312z      M112,264h32v32h-32V264z" fill="#000000ae" data-original="#000000" style="" class=""/>
			<path d="M104,392h48c4.418,0,8-3.582,8-8v-48c0-4.418-3.582-8-8-8h-48c-4.418,0-8,3.582-8,8v48C96,388.418,99.582,392,104,392z      M112,344h32v32h-32V344z" fill="#000000ae" data-original="#000000" style="" class=""/>
		</g>
	</g>
</g>
<g xmlns="http://www.w3.org/2000/svg">
</g>
<g xmlns="http://www.w3.org/2000/svg">
</g>
<g xmlns="http://www.w3.org/2000/svg">
</g>
<g xmlns="http://www.w3.org/2000/svg">
</g>
<g xmlns="http://www.w3.org/2000/svg">
</g>
<g xmlns="http://www.w3.org/2000/svg">
</g>
<g xmlns="http://www.w3.org/2000/svg">
</g>
<g xmlns="http://www.w3.org/2000/svg">
</g>
<g xmlns="http://www.w3.org/2000/svg">
</g>
<g xmlns="http://www.w3.org/2000/svg">
</g>
<g xmlns="http://www.w3.org/2000/svg">
</g>
<g xmlns="http://www.w3.org/2000/svg">
</g>
<g xmlns="http://www.w3.org/2000/svg">
</g>
<g xmlns="http://www.w3.org/2000/svg">
</g>
<g xmlns="http://www.w3.org/2000/svg">
</g>
</g></svg>
